<svg width="24" height="24" viewBox="0 0 24 24" fill="none" xmlns="http://www.w3.org/2000/svg">
<path d="M21.9742 22C21.5938 22 21.3084 21.8091 21.1182 21.4273L19.7866 18.7545H13.6041L12.2725 21.4273C12.0822 21.9045 11.5115 22.0955 11.036 21.8091C10.4653 21.6182 10.275 21.0455 10.5604 20.6636L12.1773 17.5136L15.4113 11.0227C15.6966 10.5455 16.1722 10.1636 16.7429 10.1636C17.3136 10.1636 17.7891 10.45 18.0745 11.0227L21.3084 17.5136L22.9254 20.6636C23.1156 21.1409 22.9254 21.7136 22.5449 21.9045C22.2596 22 22.1644 22 21.9742 22ZM14.5552 16.9409H18.8354L16.6478 12.6455L14.5552 16.9409ZM2.95115 18.9455C2.57069 18.9455 2.28535 18.7545 2.09512 18.3727C1.90488 17.8955 2.09512 17.3227 2.57069 17.1318C4.66323 16.0818 6.56554 14.65 8.08738 12.9318C7.04111 11.5 6.18507 10.0682 5.61438 8.63636C5.42415 8.15909 5.7095 7.58636 6.18507 7.39545C6.66065 7.20455 7.23134 7.49091 7.42157 7.96818C7.89715 9.11364 8.46784 10.2591 9.22876 11.3091C10.5604 9.4 11.5115 7.3 12.0822 5.00909H2.95115C2.38046 5.00909 2 4.62727 2 4.05455C2 3.48182 2.38046 3.1 2.95115 3.1H8.37273V1.95455C8.37273 1.38182 8.75319 1 9.32388 1C9.89457 1 10.275 1.38182 10.275 1.95455V3.1H15.6015C16.1722 3.1 16.5526 3.48182 16.5526 4.05455C16.5526 4.62727 16.1722 5.00909 15.6015 5.00909H14.0796C13.509 7.87273 12.1773 10.5455 10.4653 12.8364L11.036 13.4091C11.4164 13.7909 11.4164 14.3636 11.036 14.7455C10.6555 15.1273 10.0848 15.1273 9.70434 14.7455L9.32388 14.3636C7.70692 16.1773 5.7095 17.7045 3.42673 18.85C3.2365 18.85 3.04627 18.9455 2.95115 18.9455Z" fill="black"/>
</svg>
